<?xml version="1.0" encoding="utf-8"?>
<!-- Generator: Adobe Illustrator 20.1.0, SVG Export Plug-In . SVG Version: 6.00 Build 0)  -->
<svg version="1.1" id="Capa_1" xmlns="http://www.w3.org/2000/svg" xmlns:xlink="http://www.w3.org/1999/xlink" x="0px" y="0px"
	 viewBox="0 0 178 20" style="enable-background:new 0 0 178 20;" xml:space="preserve">
<g>
	<path style="fill:#231F20;" d="M9.9,3.1V20H6.1V3.1H0V0h16v3.1H9.9z"/>
	<path style="fill:#231F20;" d="M19.8,20V0h14v3.1H23.6v5.2h8.5v3.1h-8.5v5.6h10.2V20H19.8z"/>
	<path style="fill:#231F20;" d="M38.5,0H47c1.8,0,3.5,0.1,4.8,1.4c1.3,1.3,1.7,2.7,1.7,4.2v0.3c0,2-1.1,5-4.3,5.5l5.1,8.6h-4
		l-4.9-8.5h-3.2V20h-3.8V0z M47.5,8.6c0.8,0,1.5-0.2,2-0.7c0.3-0.3,0.3-0.5,0.3-1.1V4.8c0-0.6,0-0.8-0.3-1.1C49,3.1,48.3,3,47.5,3
		h-5.2v5.6H47.5z"/>
	<path style="fill:#231F20;" d="M58.6,0h4.6L67,10.5h0.8L71.5,0h4.5v20h-3.6V6.1l-2.9,8.1h-4.5L62.2,6v14h-3.6V0z"/>
	<path style="fill:#231F20;" d="M80.6,16.9h4.8V3.1h-4.8V0h13.3v3.1h-4.8v13.9h4.8V20H80.6V16.9z"/>
	<path style="fill:#231F20;" d="M98.4,0h4.4l7.3,13.9V0h3.7v20h-4.2l-7.4-14.1V20h-3.7V0z"/>
	<path style="fill:#231F20;" d="M131.4,20l-1-4.4h-7.8l-1.1,4.4h-3.7l4.8-20h8l4.8,20H131.4z M129.7,12.5L127.4,3h-2l-2.3,9.6H129.7
		z"/>
	<path style="fill:#231F20;" d="M139.1,0h3.8v16.9h9.8V20h-13.5V0z"/>
	<path style="fill:#231F20;" d="M163.8,18h6V4.2h-6V2.2h3.7c1.3,0,1.7-0.2,2.1-0.6c0.4-0.4,0.6-1,0.6-1.4h2V18h5.7v2h-14.2V18z"/>
</g>
</svg>
